<?xml version="1.0" encoding="UTF-8"?>
<svg xmlns="http://www.w3.org/2000/svg" version="1.1" viewBox="0 0 34 42">
  <defs>
    <style>
      .cls-1 {
        fill: #262626;
      }

      .cls-2 {
        fill: #9acb7f;
      }

      .cls-3 {
        fill: #b3715c;
      }
    </style>
  </defs>
  <!-- Generator: Adobe Illustrator 28.7.4, SVG Export Plug-In . SVG Version: 1.2.0 Build 166)  -->
  <g>
    <g id="_레이어_1" data-name="레이어_1">
      <g>
        <path class="cls-3" d="M11.1,2.2h12c1.5,0,2.7,1.2,2.7,2.7,0,0,0,0,0,0,0,0,0,0,0,0,0,1.5-1.2,2.7-2.7,2.7h-12c-1.5,0-2.7-1.2-2.7-2.7s1.2-2.7,2.7-2.7Z"/>
        <path class="cls-1" d="M26.5,4c-.5-1.9-2.2-3.4-4.3-3.4h-10.2c-2.1,0-3.8,1.4-4.3,3.4h-2.3C2.7,4,.7,6.1.7,8.6v28.1c0,2.5,2.1,4.6,4.6,4.6h23.5c2.5,0,4.6-2.1,4.6-4.6V8.6c0-2.5-2.1-4.6-4.6-4.6h-2.3ZM11.9,2.9h10.2c1.3,0,2.3,1,2.3,2.3,0,0,0,0,0,0,0,0,0,0,0,0,0,1.3-1,2.3-2.3,2.3h-10.2c-1.3,0-2.3-1-2.3-2.3s1-2.3,2.3-2.3ZM31.1,8.6v28.1c0,1.3-1.1,2.4-2.4,2.4H5.3c-1.3,0-2.4-1.1-2.4-2.4V8.6c0-1.3,1.1-2.4,2.4-2.4h2.3c.5,1.9,2.2,3.4,4.3,3.4h10.2c2.1,0,3.8-1.4,4.3-3.4h2.3c1.3,0,2.4,1.1,2.4,2.4Z"/>
        <path class="cls-1" d="M25.6,15.3h-7c-.6,0-1.1.5-1.1,1.1s.5,1.1,1.1,1.1h7c.6,0,1.1-.5,1.1-1.1s-.5-1.1-1.1-1.1Z"/>
        <path class="cls-2" d="M13.4,13.1l-2.9,2.9-1.2-1.2c-.4-.4-1.1-.4-1.6,0-.4.4-.4,1.1,0,1.6l2,2c.2.2.5.3.8.3s.6-.1.8-.3l3.7-3.7c.4-.4.4-1.1,0-1.6-.4-.4-1.1-.4-1.6,0Z"/>
        <path class="cls-1" d="M25.6,23.3h-7c-.6,0-1.1.5-1.1,1.1s.5,1.1,1.1,1.1h7c.6,0,1.1-.5,1.1-1.1s-.5-1.1-1.1-1.1Z"/>
        <path class="cls-2" d="M13.4,21l-2.9,2.9-1.2-1.2c-.4-.4-1.1-.4-1.6,0-.4.4-.4,1.1,0,1.6l2,2c.2.2.5.3.8.3s.6-.1.8-.3l3.7-3.7c.4-.4.4-1.1,0-1.6-.4-.4-1.1-.4-1.6,0Z"/>
        <path class="cls-1" d="M25.6,31.2h-7c-.6,0-1.1.5-1.1,1.1s.5,1.1,1.1,1.1h7c.6,0,1.1-.5,1.1-1.1s-.5-1.1-1.1-1.1Z"/>
        <path class="cls-2" d="M13.4,29l-2.9,2.9-1.2-1.2c-.4-.4-1.1-.4-1.6,0-.4.4-.4,1.1,0,1.6l2,2c.2.2.5.3.8.3s.6-.1.8-.3l3.7-3.7c.4-.4.4-1.1,0-1.6s-1.1-.4-1.6,0Z"/>
      </g>
    </g>
  </g>
</svg>