<?xml version="1.0" encoding="UTF-8"?>
<svg xmlns="http://www.w3.org/2000/svg" version="1.1" viewBox="0 0 37 39">
  <defs>
    <style>
      .cls-1 {
        fill: #262626;
      }

      .cls-2 {
        fill: #ff6f72;
      }
    </style>
  </defs>
  <!-- Generator: Adobe Illustrator 28.7.4, SVG Export Plug-In . SVG Version: 1.2.0 Build 166)  -->
  <g>
    <g id="_레이어_1" data-name="레이어_1">
      <g>
        <path class="cls-2" d="M1.5,13.2v-5.2c0-1.9,1-4.2,4.2-4.2h26.4c.9,0,3.5,2.1,3.5,4.3v5.1H1.5Z"/>
        <path class="cls-1" d="M9.6,0c-.6,0-1.1.5-1.1,1.1v1.4h-3.4C2.4,2.6.3,4.7.3,7.3v26.9c0,2.6,2.1,4.7,4.7,4.7h16.2c8.3,0,15-6.6,15.3-14.8,0-.2,0-.4,0-.6V7.3c0-2.6-2.1-4.7-4.7-4.7h-3.4v-1.4c0-.6-.5-1.1-1.1-1.1s-1.1.5-1.1,1.1v1.4h-15.5v-1.4c0-.6-.5-1.1-1.1-1.1ZM26.7,35.5c.4-.8.6-1.7.6-2.6v-3.3h3.3c.9,0,1.8-.2,2.6-.6-1.3,2.9-3.7,5.2-6.6,6.6ZM34.4,7.3v16.2c0,2.1-1.7,3.8-3.8,3.8h-4.4c-.6,0-1.1.5-1.1,1.1v4.4c0,2.1-1.7,3.8-3.8,3.8s0,0,0,0H5.1c-1.4,0-2.5-1.1-2.5-2.5V14.2h28.5c.6,0,1.1-.5,1.1-1.1s-.5-1.1-1.1-1.1H2.6v-4.7c0-1.4,1.1-2.5,2.5-2.5h3.4v1.2c0,.6.5,1.1,1.1,1.1s1.1-.5,1.1-1.1v-1.2h15.5v1.2c0,.6.5,1.1,1.1,1.1s1.1-.5,1.1-1.1v-1.2h3.4c1.4,0,2.5,1.1,2.5,2.5Z"/>
        <path class="cls-1" d="M10.7,16.4h-3.3c-1.3,0-2.3,1-2.3,2.3v3.3c0,1.3,1,2.3,2.3,2.3h3.3c1.3,0,2.3-1,2.3-2.3v-3.3c0-1.3-1-2.3-2.3-2.3ZM10.8,22s0,0,0,0h-3.4c0,0,0-3.5,0-3.5h3.4v3.4Z"/>
        <path class="cls-1" d="M20.4,16.4h-3.3c-1.3,0-2.3,1-2.3,2.3v3.3c0,1.3,1,2.3,2.3,2.3h3.3c1.3,0,2.3-1,2.3-2.3v-3.3c0-1.3-1-2.3-2.3-2.3ZM20.4,22s0,0,0,0h-3.4c0,0,0-3.5,0-3.5h3.4v3.4Z"/>
        <path class="cls-1" d="M10.7,26h-3.3c-1.3,0-2.3,1-2.3,2.3v3.3c0,1.3,1,2.3,2.3,2.3h3.3c1.3,0,2.3-1,2.3-2.3v-3.3c0-1.3-1-2.3-2.3-2.3ZM10.8,31.7s0,0,0,0h-3.4c0,0,0-3.5,0-3.5h3.4v3.4Z"/>
        <path class="cls-1" d="M30,16.4h-3.3c-1.3,0-2.3,1-2.3,2.3v3.3c0,1.3,1,2.3,2.3,2.3h3.3c1.3,0,2.3-1,2.3-2.3v-3.3c0-1.3-1-2.3-2.3-2.3ZM30.1,22s0,0,0,0h-3.4c0,0,0-3.5,0-3.5h3.4v3.4Z"/>
      </g>
    </g>
  </g>
</svg>