<?xml version="1.0" encoding="UTF-8"?>
<svg xmlns="http://www.w3.org/2000/svg" version="1.1" viewBox="0 0 49 39">
  <defs>
    <style>
      .cls-1 {
        fill: #afe6fb;
      }

      .cls-2 {
        fill: #fcfcfc;
      }

      .cls-3 {
        fill: #262626;
      }

      .cls-4 {
        fill: #d9d8d1;
      }
    </style>
  </defs>
  <!-- Generator: Adobe Illustrator 28.7.4, SVG Export Plug-In . SVG Version: 1.2.0 Build 166)  -->
  <g>
    <g id="_레이어_1" data-name="레이어_1">
      <g>
        <path class="cls-4" d="M2.1,37c.6-6.6,5.8-11.7,12.2-11.7s11.6,5.1,12.2,11.7H2.1Z"/>
        <path class="cls-1" d="M36,1.8c5.1,0,11.2,2.2,11.2,9.2s-6.8,9.4-11.2,9.4-11.2-2.4-11.2-9.3S31.5,1.8,36,1.8Z"/>
        <path class="cls-3" d="M27.3,38.6c.6,0,1.1-.5,1.1-1.1s0-.2,0-.2c0-6-4-11.2-9.5-13,2-1.4,3.3-3.8,3.3-6.4,0-4.4-3.5-7.9-7.9-7.9s-7.9,3.5-7.9,7.9,1.3,5,3.3,6.4C4.3,26.1.3,31.3.3,37.5s.5,1.1,1.1,1.1h25.8s0,0,0,0ZM8.7,17.8c0-3.1,2.5-5.7,5.7-5.7s5.7,2.5,5.7,5.7-2.5,5.7-5.7,5.7-5.7-2.5-5.7-5.7ZM2.6,36.4c.6-6,5.6-10.7,11.8-10.7s11.2,4.7,11.8,10.7H2.6Z"/>
        <path class="cls-3" d="M36.4.4c-6.8,0-12.3,4.8-12.3,10.6s3,11.8,3.1,12c.2.3.6.5.9.5s.4,0,.6-.2c.5-.3.7-1,.3-1.5,0,0-2.8-4.4-2.8-10.8s4.5-8.4,10.1-8.4,10.1,3.8,10.1,8.4-4.5,8.4-10.1,8.4-2.9-.3-4.3-.8c-.6-.2-1.2,0-1.4.6-.2.6,0,1.2.6,1.4,1.6.6,3.3.9,5.1.9,6.8,0,12.3-4.8,12.3-10.6S43.2.4,36.4.4Z"/>
        <path class="cls-2" d="M39.4,10c.6,0,1.1-.5,1.1-1.1s-.5-1.1-1.1-1.1h-6.1c-.6,0-1.1.5-1.1,1.1s.5,1.1,1.1,1.1h6.1Z"/>
        <path class="cls-2" d="M31.1,13.1c0,.6.5,1.1,1.1,1.1h8.3c.6,0,1.1-.5,1.1-1.1s-.5-1.1-1.1-1.1h-8.3c-.6,0-1.1.5-1.1,1.1Z"/>
      </g>
    </g>
  </g>
</svg>