<?xml version="1.0" encoding="UTF-8"?>
<svg xmlns="http://www.w3.org/2000/svg" version="1.1" viewBox="0 0 38 30">
  <defs>
    <style>
      .cls-1 {
        fill: #262626;
      }

      .cls-2 {
        fill: #ffbf34;
      }

      .cls-3 {
        fill: #ef9f32;
      }
    </style>
  </defs>
  <!-- Generator: Adobe Illustrator 28.7.4, SVG Export Plug-In . SVG Version: 1.2.0 Build 166)  -->
  <g>
    <g id="_레이어_1" data-name="레이어_1">
      <g>
        <path class="cls-2" d="M4.8,27.5c-.6,0-1.2-.2-1.6-.6l8.8-7.5c.5-.4.5-1.1.1-1.6-.4-.5-1.1-.5-1.6-.1l-8.2,7V7.1l11.4,9.6c2.5,2.1,4,2.3,5.2,2.2h.2c1.2,0,2.7-.2,5.2-2.2l11.4-9.6v17.6l-8.2-7c-.5-.4-1.2-.3-1.6.1-.4.5-.3,1.2.1,1.6l8.8,7.5c-.4.4-1,.6-1.6.6H4.8ZM4.8,2.5h28.4c1.1,0,2,.7,2.3,1.8l-12.7,10.7c-2.1,1.7-3.1,1.7-3.8,1.7h-.1c-.7,0-1.7,0-3.7-1.7L2.5,4.3c.3-1,1.2-1.8,2.3-1.8Z"/>
        <g>
          <path class="cls-3" d="M2.4,8.3v17.6l8.2-7c.4-.4,1-.3,1.5,0l1.4-1.4L2.4,8.3Z"/>
          <path class="cls-3" d="M27.4,18.9l8.2,7V8.3l-11.1,9.3,1.4,1.4c.4-.5,1.1-.5,1.6-.1Z"/>
        </g>
        <path class="cls-1" d="M4.8,29.7h28.4c2.6,0,4.6-2.1,4.6-4.6V4.9c0-2.6-2.1-4.6-4.6-4.6H4.8C2.2.3.1,2.4.1,4.9v20.2c0,2.6,2.1,4.6,4.6,4.6ZM4.8,27.5c-.6,0-1.2-.2-1.6-.6l8.8-7.5c.5-.4.5-1.1.1-1.6-.4-.5-1.1-.5-1.6-.1l-8.2,7V7.1l11.4,9.6c2.5,2.1,4,2.3,5.2,2.2h.2c1.2,0,2.7-.2,5.2-2.2l11.4-9.6v17.6l-8.2-7c-.5-.4-1.2-.3-1.6.1-.4.5-.3,1.2.1,1.6l8.8,7.5c-.4.4-1,.6-1.6.6H4.8ZM4.8,2.5h28.4c1.1,0,2,.7,2.3,1.8l-12.7,10.7c-2.1,1.7-3.1,1.7-3.8,1.7h-.1c-.7,0-1.7,0-3.7-1.7L2.5,4.3c.3-1,1.2-1.8,2.3-1.8Z"/>
      </g>
    </g>
  </g>
</svg>