<?xml version="1.0" encoding="UTF-8"?>
<svg xmlns="http://www.w3.org/2000/svg" version="1.1" viewBox="0 0 36 37">
  <defs>
    <style>
      .cls-1 {
        fill: #fdf4bc;
      }

      .cls-2 {
        fill: #262626;
      }

      .cls-3 {
        fill: #ed6e94;
      }

      .cls-4 {
        fill: #ffbf34;
      }

      .cls-5 {
        fill: #ef9f32;
      }
    </style>
  </defs>
  <!-- Generator: Adobe Illustrator 28.7.4, SVG Export Plug-In . SVG Version: 1.2.0 Build 166)  -->
  <g>
    <g id="_레이어_1" data-name="레이어_1">
      <g>
        <path class="cls-3" d="M19.9,5.8l11.1,11.1s1.5-1.8,2.4-2.7c.9-.9,1.1-3.3-.6-4.9-1.7-1.7-4.9-4.9-6.2-6.2s-3.7-.5-4.5.3-2.2,2.5-2.2,2.5Z"/>
        <rect class="cls-5" x="7.6" y="23.6" width="22.9" height="3" transform="translate(-12.2 20.8) rotate(-45)"/>
        <polygon class="cls-1" points="5.4 34.1 2.5 31.2 3.3 23.8 8.1 28.5 12.8 33.2 5.4 34.1"/>
        <rect class="cls-1" x="1.2" y="15.7" width="20.5" height="2.7" transform="translate(-8.7 13.1) rotate(-45)"/>
        <polygon class="cls-4" points="23.6 13 25.2 14.6 10.5 29.3 8.9 27.7 7.3 26 22 11.4 23.6 13"/>
        <path class="cls-2" d="M34.4,8.5l-6.4-6.4c-1.7-1.7-4.6-1.7-6.3,0L2,21.8s0,0,0,0c0,0-.2.2-.2.3,0,0,0,0,0,0,0,0,0,.2,0,.3l-1.4,12.5s0,0,0,.1,0,0,0,.1c0,0,0,0,0,0,0,0,0,.1,0,.2,0,0,0,.1.1.2,0,0,0,0,.1.1,0,0,.1.1.2.1,0,0,0,0,.2,0,0,0,.1,0,.2,0,0,0,0,0,.1,0s0,0,.1,0h0s0,0,.1,0l12.5-1.4c0,0,.2,0,.3,0,0,0,0,0,0,0,.1,0,.2-.1.3-.2,0,0,0,0,0,0l17.2-17.2,2.5-2.5c1.7-1.7,1.7-4.6,0-6.3ZM22.4,14.1l1.5,1.5-13.2,13.2-1.5-1.5-1.5-1.5,13.2-13.2,1.5,1.5ZM27.1,18.9l-13.2,13.2-1.7-1.7,13.2-13.2,1.7,1.7ZM6.1,24.3l-1.7-1.7,13.2-13.2,1.7,1.7-13.2,13.2ZM5.3,33.6l-2.4-2.4.7-6.2,3.9,3.9,3.9,3.9-6.2.7ZM32.9,13.2l-4.2,4.2-2.5-2.5s0,0,0,0c0,0,0,0,0,0l-2.2-2.2-2.2-2.3s0,0,0,0c0,0,0,0,0,0l-2.5-2.5.9-.9,7.2,7.2c.2.2.5.3.8.3s.6-.1.8-.3c.4-.4.4-1.1,0-1.6l-7.2-7.2,1.7-1.7c.9-.9,2.3-.9,3.1,0l6.4,6.4c.9.9.9,2.3,0,3.1Z"/>
      </g>
    </g>
  </g>
</svg>