<?xml version="1.0" encoding="UTF-8"?>
<svg xmlns="http://www.w3.org/2000/svg" version="1.1" viewBox="0 0 14 15">
  <defs>
    <style>
      .cls-1 {
        fill: #262626;
      }

      .cls-2 {
        fill: #d9d8d1;
      }
    </style>
  </defs>
  <!-- Generator: Adobe Illustrator 28.7.4, SVG Export Plug-In . SVG Version: 1.2.0 Build 166)  -->
  <g>
    <g id="_레이어_1" data-name="레이어_1">
      <g>
        <path class="cls-2" d="M.9,13s1-6,5.6-6,5.9,6,5.9,6H.9Z"/>
        <path class="cls-1" d="M1.6,14.2h6.4c.6,0,1.1-.5,1.1-1.1s-.5-1.1-1.1-1.1H2.8c.5-1.8,2.2-3.2,4.2-3.2s4.3,1.9,4.3,4.3.5,1.1,1.1,1.1,1.1-.5,1.1-1.1c0-2.5-1.4-4.7-3.5-5.8.6-.7.9-1.5.9-2.5,0-2.2-1.8-4-4-4s-4,1.8-4,4,.4,1.8.9,2.5C1.9,8.4.5,10.6.5,13.1s.5,1.1,1.1,1.1ZM5.3,4.8c0-1,.8-1.7,1.7-1.7s1.7.8,1.7,1.7-.8,1.7-1.7,1.7-1.7-.8-1.7-1.7Z"/>
      </g>
    </g>
  </g>
</svg>