<?xml version="1.0" encoding="UTF-8"?>
<svg xmlns="http://www.w3.org/2000/svg" version="1.1" viewBox="0 0 34 39">
  <defs>
    <style>
      .cls-1 {
        fill: #262626;
      }

      .cls-2 {
        fill: #9acb7f;
      }

      .cls-3 {
        fill: #d9d8d1;
      }

      .cls-4 {
        fill: #ffbf34;
      }
    </style>
  </defs>
  <!-- Generator: Adobe Illustrator 28.7.4, SVG Export Plug-In . SVG Version: 1.2.0 Build 166)  -->
  <g>
    <g id="_레이어_1" data-name="레이어_1">
      <path class="cls-2" d="M13.3,36.3H4.5c-1.4,0-2.6-1.1-2.6-2.6V3.9c0-1.4,1.1-2.6,2.6-2.6h8.8c1.4,0,2.6,1.1,2.6,2.6v29.9c0,1.4-1.1,2.6-2.6,2.6Z"/>
      <path class="cls-4" d="M29.4,36.3h-8.7c-1.4,0-2.6-1.1-2.6-2.6V3.9c0-1.4,1.1-2.6,2.6-2.6h8.7c1.4,0,2.6,1.1,2.6,2.6v29.9c0,1.4-1.1,2.6-2.6,2.6Z"/>
      <path class="cls-1" d="M12.2,5.2h-6c-.6,0-1.1.5-1.1,1.1v16.5c0,.6.5,1.1,1.1,1.1h6c.6,0,1.1-.5,1.1-1.1V6.3c0-.6-.5-1.1-1.1-1.1ZM7.3,11.6h3.8v6h-3.8v-6ZM11.1,7.4v1.9h-3.8v-1.9h3.8ZM7.3,21.7v-1.9h3.8v1.9h-3.8Z"/>
      <path class="cls-3" d="M7.3,11.6h3.8v6h-3.8v-6ZM11.1,7.4v1.9h-3.8v-1.9h3.8ZM7.3,21.7v-1.9h3.8v1.9h-3.8Z"/>
      <path class="cls-3" d="M27,17.6h-4.8v-6.2h4.8v6.2ZM22.2,21.9v-2.9h4.8v2.9h-4.8ZM27,7v3h-4.8v-3h4.8Z"/>
      <path class="cls-3" d="M25.2,27c1.4,0,2.5,1.1,2.5,2.5s-1.1,2.5-2.5,2.5-2.5-1.1-2.5-2.5,1.1-2.5,2.5-2.5Z"/>
      <path class="cls-3" d="M8.9,32c-1.3,0-2.3-1-2.3-2.3s1-2.3,2.3-2.3,2.3,1,2.3,2.3-1,2.3-2.3,2.3Z"/>
      <path class="cls-1" d="M29,.4h-8.4c-1.4,0-2.7.7-3.6,1.7-.9-1-2.1-1.7-3.6-1.7H5C2.4.4.3,2.5.3,5.1v28.8c0,2.6,2.1,4.7,4.7,4.7h8.4c2.6,0,4.7-2.1,4.7-4.7V5.1c0-1.4,1.1-2.5,2.5-2.5h8.4c1.4,0,2.5,1.1,2.5,2.5v28.8c0,1.4-1.1,2.5-2.5,2.5h-8.4c-.6,0-1.1.5-1.1,1.1s.5,1.1,1.1,1.1h8.4c2.6,0,4.7-2.1,4.7-4.7V5.1c0-2.6-2.1-4.7-4.7-4.7ZM13.4,36.4H5c-1.4,0-2.5-1.1-2.5-2.5V5.1c0-1.4,1.1-2.5,2.5-2.5h8.4c1.4,0,2.5,1.1,2.5,2.5v28.8c0,1.4-1.1,2.5-2.5,2.5Z"/>
      <path class="cls-1" d="M9.2,25.8c-2.3,0-4.1,1.9-4.1,4.1s1.9,4.1,4.1,4.1,4.1-1.9,4.1-4.1-1.9-4.1-4.1-4.1ZM9.2,31.8c-1.1,0-1.9-.9-1.9-1.9s.9-1.9,1.9-1.9,1.9.9,1.9,1.9-.9,1.9-1.9,1.9Z"/>
      <path class="cls-1" d="M27.8,24c.6,0,1.1-.5,1.1-1.1V6.3c0-.6-.5-1.1-1.1-1.1h-6c-.6,0-1.1.5-1.1,1.1v16.5c0,.6.5,1.1,1.1,1.1h6ZM26.7,17.6h-3.8v-6h3.8v6ZM22.9,21.7v-1.9h3.8v1.9h-3.8ZM26.7,7.4v1.9h-3.8v-1.9h3.8Z"/>
      <path class="cls-1" d="M24.8,34c2.3,0,4.1-1.9,4.1-4.1s-1.9-4.1-4.1-4.1-4.1,1.9-4.1,4.1,1.9,4.1,4.1,4.1ZM24.8,28c1.1,0,1.9.9,1.9,1.9s-.9,1.9-1.9,1.9-1.9-.9-1.9-1.9.9-1.9,1.9-1.9Z"/>
    </g>
  </g>
</svg>